<?xml version="1.0" standalone="no"?>
<!DOCTYPE svg PUBLIC "-//W3C//DTD SVG 20010904//EN"
 "http://www.w3.org/TR/2001/REC-SVG-20010904/DTD/svg10.dtd">
<svg version="1.0" xmlns="http://www.w3.org/2000/svg"
 width="1600.000000pt" height="864.000000pt" viewBox="0 0 1600.000000 864.000000"
 preserveAspectRatio="xMidYMid meet">

<g transform="translate(0.000000,864.000000) scale(0.100000,-0.100000)"
fill="#000000" stroke="none">
<path d="M2225 6978 c-506 -6 -921 -12 -923 -13 -2 -2 11 -30 27 -64 29 -57
30 -76 3 -49 -30 30 4 -79 36 -114 8 -10 12 -18 8 -18 -4 0 3 -10 14 -22 26
-28 53 -78 43 -78 -5 0 0 -5 9 -11 11 -6 15 -16 11 -26 -4 -11 -3 -14 5 -9 8
5 10 2 6 -8 -4 -9 1 -18 10 -22 9 -3 16 -13 16 -21 0 -8 5 -11 10 -8 6 3 11
-1 11 -9 1 -9 3 -20 4 -26 1 -5 3 -13 4 -17 1 -5 6 -1 12 7 9 12 10 11 6 -7
-3 -13 -1 -23 4 -23 5 0 9 -7 9 -15 0 -8 5 -15 11 -15 5 0 8 -4 5 -9 -4 -5 -2
-11 2 -13 9 -3 19 -21 67 -115 16 -33 31 -50 39 -47 9 4 13 -3 11 -20 -2 -17
2 -26 11 -26 8 0 13 -3 13 -7 -4 -22 2 -33 13 -27 7 5 9 2 5 -9 -3 -8 1 -21 8
-27 8 -7 12 -16 9 -21 -3 -5 3 -9 12 -9 13 0 15 -3 7 -11 -9 -9 -7 -17 7 -32
11 -11 17 -25 13 -30 -3 -6 -1 -7 5 -4 10 7 59 -80 54 -96 -1 -5 2 -6 8 -2 5
3 10 -1 10 -10 0 -11 5 -15 15 -11 13 4 14 2 5 -14 -8 -16 -8 -22 4 -26 8 -3
17 -16 20 -28 3 -13 19 -38 36 -57 16 -19 28 -40 25 -47 -3 -7 2 -15 10 -18 8
-4 12 -10 9 -15 -3 -5 0 -9 5 -9 6 0 11 -6 11 -14 0 -7 7 -19 15 -26 8 -7 13
-16 10 -20 -3 -5 0 -12 6 -16 8 -5 9 -3 4 6 -5 8 -4 11 3 6 6 -4 9 -13 5 -21
-3 -8 0 -15 6 -15 6 0 8 -7 4 -17 -4 -10 -2 -14 4 -10 7 4 16 -7 22 -25 6 -18
21 -42 33 -55 12 -13 18 -23 14 -23 -12 0 27 -61 46 -71 11 -6 18 -4 22 6 3 8
11 15 17 15 8 0 7 -6 -2 -17 -13 -16 -12 -17 4 -4 13 11 57 14 185 14 l167 0
-125 7 c-112 5 -103 6 80 6 127 0 174 -2 125 -6 -83 -6 1466 -5 1705 1 74 2
-200 6 -610 9 l-745 5 785 1 c432 1 767 -2 745 -6 -24 -5 24 -7 120 -6 171 1
448 -11 526 -23 26 -4 60 -7 75 -5 15 2 39 -3 53 -10 14 -7 49 -16 76 -20 50
-7 111 -26 174 -53 30 -14 52 -20 74 -22 5 -1 6 -5 3 -9 -3 -4 18 -17 45 -28
28 -10 55 -25 61 -31 6 -7 17 -13 24 -13 8 0 14 -4 14 -9 0 -5 9 -12 19 -16
23 -7 171 -149 196 -187 9 -15 21 -25 26 -22 5 3 6 -1 3 -9 -3 -8 0 -18 7 -23
8 -5 10 -3 4 6 -5 8 -4 11 3 6 6 -4 8 -14 5 -23 -5 -13 -2 -15 11 -10 9 4 15
3 11 -2 -8 -15 6 -41 22 -41 9 0 13 -6 9 -15 -3 -9 3 -24 14 -35 11 -11 20
-23 20 -26 0 -3 6 -20 14 -37 7 -18 19 -47 26 -64 7 -20 17 -30 24 -26 6 4 5
-1 -3 -10 -9 -11 -10 -17 -2 -17 6 0 11 -11 11 -25 0 -15 6 -38 14 -53 28 -54
55 -213 51 -300 -4 -106 7 -98 16 11 5 61 6 51 3 -40 -4 -128 -13 -191 -23
-175 -3 6 -6 -9 -6 -31 -1 -80 -70 -250 -149 -369 -87 -132 -252 -263 -394
-315 -278 -101 -795 -153 -1527 -153 -300 0 -828 14 -938 25 l-58 6 41 -83
c23 -47 31 -71 19 -55 -16 22 -24 25 -35 16 -11 -9 -11 -16 3 -43 9 -17 19
-33 22 -36 6 -5 29 -46 90 -165 20 -38 42 -75 50 -81 8 -6 11 -16 8 -21 -4 -6
0 -13 8 -17 8 -3 15 -12 15 -21 0 -8 5 -15 11 -15 5 0 7 -4 4 -10 -3 -6 -3
-10 2 -10 4 0 17 -20 28 -45 11 -25 23 -45 28 -45 4 0 6 -4 3 -9 -6 -9 30 -61
52 -74 7 -5 10 -17 7 -28 -4 -12 -2 -19 6 -19 7 0 10 -3 6 -6 -3 -3 3 -15 13
-27 11 -11 27 -40 36 -63 9 -25 21 -41 27 -37 6 4 8 0 4 -10 -3 -10 -2 -17 3
-17 6 0 10 -6 10 -14 0 -8 6 -21 13 -28 7 -7 30 -47 51 -88 55 -109 72 -135
84 -133 6 2 9 -3 7 -10 -3 -6 2 -23 9 -37 8 -14 24 -45 36 -69 11 -25 31 -59
43 -75 40 -54 67 -107 61 -118 -5 -7 -2 -8 6 -3 10 6 12 4 7 -8 -4 -11 -2 -14
9 -10 10 3 12 0 9 -10 -9 -23 22 -26 230 -25 186 2 187 2 65 8 -110 6 -103 6
60 5 485 -5 623 -4 858 6 139 5 263 7 275 4 18 -5 19 -4 7 5 -12 9 -1 10 48 8
38 -3 57 -1 50 5 -8 5 12 7 52 4 39 -3 57 -2 45 3 -17 7 -15 9 12 9 78 2 315
66 473 128 847 333 1442 1035 1619 1909 70 345 68 769 -5 1119 -51 238 -134
472 -240 675 -151 288 -438 641 -694 856 -389 327 -897 502 -1605 554 -476 35
-1489 44 -3000 28z m-810 -228 c9 -16 13 -30 11 -30 -3 0 -12 14 -21 30 -9 17
-13 30 -11 30 3 0 12 -13 21 -30z m35 -60 c6 -11 8 -20 6 -20 -3 0 -10 9 -16
20 -6 11 -8 20 -6 20 3 0 10 -9 16 -20z m45 -77 c15 -27 36 -63 47 -80 11 -18
17 -33 14 -33 -3 0 -16 18 -29 41 -22 37 -26 39 -36 23 -6 -11 -11 -14 -11 -8
0 5 5 15 11 21 7 7 4 21 -11 47 -12 20 -20 36 -17 36 3 0 17 -21 32 -47z m99
-169 c3 -8 2 -12 -4 -9 -6 3 -10 10 -10 16 0 14 7 11 14 -7z m24 -49 c-3 -3
-9 2 -12 12 -6 14 -5 15 5 6 7 -7 10 -15 7 -18z m47 -75 c9 -16 13 -30 11 -30
-3 0 -12 14 -21 30 -9 17 -13 30 -11 30 3 0 12 -13 21 -30z m35 -60 c6 -11 8
-20 6 -20 -3 0 -10 9 -16 20 -6 11 -8 20 -6 20 3 0 10 -9 16 -20z m40 -70 c11
-22 19 -40 16 -40 -4 0 -46 68 -46 76 0 13 12 -1 30 -36z m60 -100 c6 -11 8
-20 6 -20 -3 0 -10 9 -16 20 -6 11 -8 20 -6 20 3 0 10 -9 16 -20z m40 -71 c6
-11 5 -16 -5 -16 -7 0 -11 6 -8 13 2 6 0 15 -6 19 -6 3 -11 12 -11 18 0 12 10
1 30 -34z m40 -68 c7 -15 7 -22 -2 -27 -7 -4 -10 -4 -6 1 4 4 3 16 -3 26 -5
11 -7 19 -5 19 3 0 10 -9 16 -19z m49 -83 c17 -28 19 -38 9 -44 -7 -4 -10 -4
-6 1 11 11 -11 47 -24 39 -7 -4 -8 -3 -4 4 4 6 2 22 -5 34 -17 33 4 9 30 -34z
m81 -143 c14 -19 14 -19 -2 -6 -10 7 -18 18 -18 24 0 6 1 8 3 6 1 -2 9 -13 17
-24z m71 -120 c18 -33 28 -55 22 -50 -5 6 -25 37 -43 70 -18 33 -28 56 -23 50
6 -5 26 -37 44 -70z m98 -170 c13 -22 16 -32 8 -23 -8 10 -18 14 -22 10 -5 -4
-5 -2 -2 4 3 6 -3 26 -14 45 -12 19 -14 27 -7 19 8 -8 25 -33 37 -55z m2874
-32 c-18 -2 -48 -2 -65 0 -18 2 -4 4 32 4 36 0 50 -2 33 -4z m-2265 -10 c-10
-2 -26 -2 -35 0 -10 3 -2 5 17 5 19 0 27 -2 18 -5z m2421 -2 c8 -5 -5 -7 -35
-4 -27 3 -51 7 -53 9 -9 8 75 3 88 -5z m106 -11 c42 -11 1 -11 -50 -1 -34 7
-35 9 -10 9 17 0 44 -4 60 -8z m78 -17 c-7 -2 -19 -2 -25 0 -7 3 -2 5 12 5 14
0 19 -2 13 -5z m50 -10 c-7 -2 -19 -2 -25 0 -7 3 -2 5 12 5 14 0 19 -2 13 -5z
m77 -19 l35 -14 -35 6 c-40 7 -76 24 -50 23 8 0 31 -7 50 -15z m100 -36 c10
-6 7 -7 -10 -2 -14 3 -32 11 -40 16 -10 6 -7 7 10 2 14 -3 32 -11 40 -16z m90
-38 c33 -17 60 -33 60 -35 0 -5 -119 52 -129 61 -13 12 16 1 69 -26z m115 -70
c3 -5 1 -10 -4 -10 -6 0 -11 5 -11 10 0 6 2 10 4 10 3 0 8 -4 11 -10z m89 -71
c30 -28 74 -74 97 -102 l41 -52 -40 41 c-22 23 -44 39 -48 35 -4 -3 -4 -1 -1
5 8 14 -18 38 -32 29 -6 -3 -9 0 -6 7 5 14 -16 36 -65 71 -13 9 -19 17 -13 17
6 0 36 -23 67 -51z m187 -226 c61 -97 140 -286 139 -332 -1 -9 -13 22 -29 69
-37 115 -99 242 -113 234 -7 -4 -8 -3 -4 5 4 6 -1 23 -12 39 -26 38 -34 52
-28 52 2 0 23 -30 47 -67z m157 -423 c0 -22 -1 -22 -8 5 -4 17 -8 39 -8 50 0
16 2 15 8 -5 4 -14 8 -36 8 -50z m9 -92 c-2 -13 -4 -3 -4 22 0 25 2 35 4 23 2
-13 2 -33 0 -45z m-2957 -1428 c6 -11 8 -20 6 -20 -3 0 -10 9 -16 20 -6 11 -8
20 -6 20 3 0 10 -9 16 -20z m75 -129 c3 -5 2 -12 -3 -15 -5 -3 -9 1 -9 9 0 17
3 19 12 6z m24 -51 c11 -24 11 -24 -3 -6 -9 11 -16 24 -16 30 0 12 5 7 19 -24z
m41 -70 c11 -22 18 -40 15 -40 -2 0 -14 18 -25 40 -11 22 -18 40 -15 40 2 0
14 -18 25 -40z m50 -90 c6 -11 8 -20 6 -20 -3 0 -10 9 -16 20 -6 11 -8 20 -6
20 3 0 10 -9 16 -20z m49 -88 c7 -13 6 -19 -2 -19 -7 0 -13 9 -13 19 0 10 1
18 3 18 1 0 7 -8 12 -18z m76 -137 c21 -38 33 -65 27 -60 -5 6 -27 42 -48 80
-20 39 -33 66 -27 60 5 -5 27 -41 48 -80z m75 -134 c24 -41 28 -56 19 -65 -9
-8 -10 -8 -5 1 3 6 -7 35 -24 63 -16 28 -30 54 -30 57 0 10 6 2 40 -56z m91
-166 l10 -20 -16 20 c-9 11 -21 29 -26 40 l-10 20 16 -20 c9 -11 21 -29 26
-40z m49 -85 c11 -22 18 -40 15 -40 -2 0 -14 18 -25 40 -11 22 -18 40 -15 40
2 0 14 -18 25 -40z m59 -109 c18 -29 30 -56 27 -58 -3 -3 -17 19 -33 49 -48
92 -45 97 6 9z m76 -134 c19 -35 35 -68 35 -73 -1 -5 -8 4 -16 19 -8 16 -20
25 -26 21 -7 -5 -8 -2 -3 5 9 15 -14 63 -26 55 -5 -3 -6 3 -2 12 5 13 3 15 -7
9 -9 -5 -11 -4 -6 3 4 7 9 12 11 12 2 0 20 -29 40 -63z m72 -83 c-3 -3 -12 -4
-19 -1 -8 3 -5 6 6 6 11 1 17 -2 13 -5z"/>
<path d="M1005 6910 c14 -28 23 -56 19 -62 -4 -6 -3 -8 3 -5 6 4 13 0 17 -8 7
-20 -9 -28 -24 -10 -23 28 -29 4 -7 -30 12 -18 25 -31 29 -29 4 3 5 -2 2 -10
-4 -10 -1 -16 10 -16 9 0 13 -6 10 -14 -5 -14 53 -116 67 -116 5 0 5 -7 2 -17
-4 -11 -3 -14 5 -9 7 4 12 1 12 -10 0 -18 62 -125 88 -151 9 -9 17 -21 17 -27
1 -18 28 -66 37 -66 4 0 8 -7 8 -15 0 -8 5 -15 10 -15 6 0 10 -7 10 -16 0 -9
9 -27 20 -41 11 -14 20 -32 20 -40 0 -8 5 -11 10 -8 6 3 10 -2 10 -12 0 -27
67 -127 74 -111 3 7 4 4 1 -8 -3 -12 3 -29 15 -42 11 -11 20 -26 20 -32 0 -6
10 -26 23 -43 12 -18 27 -41 34 -52 6 -11 16 -19 22 -18 6 2 8 -3 5 -11 -3 -8
-1 -17 5 -21 6 -3 11 -14 11 -24 0 -10 9 -26 20 -36 11 -10 18 -20 15 -23 -2
-2 8 -23 24 -46 16 -22 31 -51 35 -64 4 -13 12 -19 18 -16 8 5 9 1 5 -10 -6
-14 -3 -17 10 -12 10 4 15 4 11 1 -9 -9 58 -139 90 -173 6 -7 12 -20 12 -28 0
-8 3 -14 8 -15 4 0 17 -2 29 -5 l22 -4 -20 38 c-12 20 -14 28 -5 18 8 -10 17
-23 19 -29 3 -10 162 5 173 16 2 2 -106 193 -242 423 -135 230 -336 573 -447
762 l-201 342 -93 0 -93 0 25 -50z m95 -170 c6 -11 8 -20 6 -20 -3 0 -10 9
-16 20 -6 11 -8 20 -6 20 3 0 10 -9 16 -20z m85 -144 c16 -27 24 -47 18 -43
-12 7 -83 132 -83 145 0 7 15 -16 65 -102z m40 -65 c3 -5 2 -12 -3 -15 -5 -3
-9 1 -9 9 0 17 3 19 12 6z m30 -51 c9 -16 13 -30 11 -30 -3 0 -12 14 -21 30
-9 17 -13 30 -11 30 3 0 12 -13 21 -30z m35 -60 c6 -11 8 -20 6 -20 -3 0 -10
9 -16 20 -6 11 -8 20 -6 20 3 0 10 -9 16 -20z m35 -62 l16 -33 -20 25 c-20 24
-26 40 -16 40 2 0 12 -15 20 -32z m49 -83 l17 -30 -20 24 c-12 13 -21 28 -21
34 0 12 0 11 24 -28z m46 -75 c6 -11 8 -20 6 -20 -3 0 -10 9 -16 20 -6 11 -8
20 -6 20 3 0 10 -9 16 -20z m56 -93 c14 -30 14 -31 -1 -12 -25 30 -39 59 -26
51 6 -4 18 -22 27 -39z m38 -63 c5 -14 4 -15 -9 -4 -17 14 -19 20 -6 20 5 0
12 -7 15 -16z m71 -123 c30 -50 50 -89 45 -86 -5 3 -23 30 -40 60 -17 31 -36
53 -41 50 -5 -4 -6 2 -2 11 5 13 3 15 -7 9 -9 -5 -11 -4 -6 3 4 6 2 22 -5 34
-26 50 5 5 56 -81z m86 -143 c11 -21 11 -22 -4 -9 -10 7 -17 17 -17 22 0 15 9
10 21 -13z m64 -109 c11 -21 11 -26 0 -26 -7 0 -11 7 -7 15 4 11 1 13 -8 7 -9
-5 -11 -4 -6 4 4 6 -2 24 -13 40 -12 16 -21 33 -21 38 0 9 33 -38 55 -78z m35
-59 c6 -11 8 -20 6 -20 -3 0 -10 9 -16 20 -6 11 -8 20 -6 20 3 0 10 -9 16 -20z
m30 -52 c10 -21 10 -21 -3 -6 -8 10 -18 14 -22 10 -5 -4 -5 -1 -1 6 10 17 14
15 26 -10z m35 -58 c9 -16 13 -30 11 -30 -3 0 -12 14 -21 30 -9 17 -13 30 -11
30 3 0 12 -13 21 -30z"/>
<path d="M6251 4134 c0 -11 3 -14 6 -6 3 7 2 16 -1 19 -3 4 -6 -2 -5 -13z"/>
<path d="M1120 3655 c0 -21 31 -47 48 -40 12 4 12 3 3 -9 -9 -11 -6 -17 15
-31 18 -11 24 -12 19 -4 -5 8 3 3 16 -11 36 -36 78 -70 87 -70 4 0 21 -14 39
-30 18 -17 36 -30 42 -30 5 0 11 -4 13 -8 7 -18 145 -120 154 -114 17 12 10
57 -8 54 -8 -1 -18 4 -21 11 -2 7 -24 26 -48 42 -24 17 -55 40 -69 53 -14 12
-32 20 -40 17 -8 -4 -11 -3 -7 1 11 11 -13 34 -35 34 -10 0 -17 4 -14 8 5 9
-41 47 -58 47 -6 1 -10 6 -9 13 2 6 -13 19 -32 28 -20 9 -41 24 -48 33 -15 20
-47 24 -47 6z m159 -98 c8 -10 7 -14 -2 -14 -8 0 -14 6 -14 14 0 7 1 13 2 13
2 0 8 -6 14 -13z"/>
<path d="M2837 3534 c-4 -4 -4 -11 -1 -15 3 -5 211 -9 464 -9 398 0 459 2 464
15 5 13 -50 15 -458 15 -254 0 -466 -3 -469 -6z"/>
<path d="M4001 3506 c8 -9 125 -13 144 -5 12 5 -13 8 -64 8 -46 1 -82 -1 -80
-3z"/>
<path d="M1575 3321 c3 -5 1 -12 -5 -16 -6 -4 -8 -11 -4 -16 3 -5 10 -7 15 -4
5 4 9 2 9 -2 0 -5 22 -25 49 -45 37 -28 51 -34 60 -25 9 9 11 8 6 -5 -5 -11 4
-23 29 -41 20 -13 33 -27 28 -32 -4 -5 -2 -5 4 -2 6 3 20 -1 30 -11 53 -47 67
-56 60 -42 -4 8 2 2 14 -13 19 -23 25 -26 38 -15 9 7 13 8 9 2 -3 -6 1 -19 11
-28 28 -28 77 -66 83 -66 4 0 22 -13 40 -30 19 -16 40 -28 47 -25 8 3 10 0 6
-7 -5 -8 0 -9 16 -5 16 4 20 3 12 -5 -14 -14 32 -53 49 -42 8 4 9 3 5 -4 -4
-7 -4 -12 1 -12 4 0 22 -14 40 -30 18 -17 34 -30 37 -30 3 0 20 -13 38 -30 18
-16 36 -30 40 -30 5 0 18 -9 31 -20 58 -54 60 -55 53 -40 -6 12 -5 12 6 -1 7
-8 25 -24 40 -33 15 -10 25 -22 22 -27 -3 -5 3 -6 12 -2 12 4 15 3 10 -5 -5
-8 -1 -10 10 -5 11 4 15 3 10 -5 -3 -6 3 -13 14 -17 11 -3 20 -11 20 -16 0 -5
7 -9 15 -9 8 0 15 -5 15 -10 0 -6 8 -14 17 -17 17 -7 41 -25 68 -50 8 -7 18
-13 24 -13 6 0 11 -4 11 -8 0 -5 23 -23 50 -41 28 -18 48 -37 45 -42 -4 -5 2
-6 11 -2 12 4 15 3 10 -5 -5 -8 -1 -10 10 -5 10 4 15 2 11 -3 -3 -6 8 -19 26
-29 18 -10 38 -25 46 -33 7 -7 20 -11 27 -8 9 3 11 -1 7 -12 -3 -9 -3 -14 1
-10 4 3 21 -6 38 -20 17 -15 34 -26 39 -24 5 1 8 -4 7 -10 -2 -8 6 -13 19 -12
13 1 20 -2 18 -6 -3 -5 14 -22 37 -39 23 -17 38 -31 32 -31 -5 -1 8 -10 29
-21 20 -11 37 -24 37 -29 0 -5 14 -17 30 -25 31 -16 58 -36 92 -67 21 -21 32
-23 22 -5 -5 6 9 -5 29 -27 25 -26 42 -36 53 -32 15 6 15 4 3 -10 -13 -16 -12
-16 9 -5 22 12 31 41 11 41 -15 0 -39 26 -31 35 4 4 3 6 -3 5 -21 -4 -55 13
-60 31 -4 10 -13 19 -21 19 -8 0 -17 7 -20 15 -4 8 -10 13 -14 10 -5 -3 -15 4
-23 15 -7 11 -16 18 -18 15 -3 -2 -23 11 -44 30 -37 32 -74 48 -60 25 3 -6 -1
-7 -10 -4 -14 6 -14 8 2 21 10 8 12 12 6 8 -7 -3 -13 -2 -13 3 0 5 -9 12 -20
15 -11 3 -19 11 -18 18 2 7 -1 13 -7 14 -5 0 -20 6 -31 13 -12 6 -25 8 -29 4
-3 -4 -6 -2 -5 3 5 22 -1 35 -15 35 -7 0 -18 7 -23 16 -5 9 -12 14 -16 12 -7
-3 -37 19 -84 62 -29 26 -35 30 -53 30 -5 0 -7 5 -3 12 4 7 3 8 -4 4 -7 -4
-12 -3 -12 2 0 5 -11 15 -25 22 -13 7 -22 17 -19 22 3 5 2 7 -3 6 -12 -4 -73
35 -67 43 2 5 -5 6 -16 4 -11 -2 -18 0 -16 4 3 4 -4 15 -15 24 -10 9 -19 15
-19 12 0 -3 -8 2 -17 11 -52 46 -89 74 -99 74 -7 0 -19 11 -28 25 -9 14 -21
23 -26 20 -4 -3 -18 7 -29 21 -12 15 -21 23 -21 18 -1 -5 -10 2 -20 15 -11 13
-20 19 -20 15 -1 -5 -10 2 -20 15 -11 13 -20 20 -20 16 0 -4 -6 -2 -13 4 -8 6
-17 7 -21 3 -4 -4 -6 -2 -4 3 1 6 -9 22 -24 36 -19 19 -30 24 -42 17 -11 -6
-14 -5 -10 5 4 13 -20 42 -41 49 -5 2 -8 8 -7 13 2 6 0 7 -3 3 -4 -4 -22 4
-40 17 -17 14 -35 22 -39 18 -4 -4 -4 1 0 12 7 20 7 20 -17 0 -13 -11 -19 -13
-12 -6 13 16 6 41 -12 41 -7 0 -18 7 -25 15 -15 18 -35 20 -24 3 5 -7 3 -8 -5
-4 -7 5 -10 10 -7 13 3 3 -9 20 -27 37 -28 28 -34 30 -45 16 -8 -8 -10 -9 -7
-2 11 20 -38 58 -68 53 -5 -1 -6 3 -2 9 3 6 11 8 16 5 5 -4 9 -4 9 -1 0 3 -17
13 -37 23 -21 9 -43 24 -49 32 -6 8 -16 11 -23 7 -6 -4 -11 -4 -10 1 3 19 -2
34 -9 29 -5 -3 -20 6 -35 20 -15 14 -32 22 -39 18 -6 -4 -8 -3 -4 4 8 13 -43
54 -61 48 -7 -3 -15 0 -19 6 -5 7 -2 8 7 4 8 -4 5 0 -5 8 -22 18 -41 21 -31 7z"/>
<path d="M3473 1879 c-9 -9 -2 -20 29 -43 22 -17 54 -39 70 -48 17 -9 41 -27
54 -39 13 -12 27 -20 30 -17 10 11 -24 63 -50 78 -14 7 -26 17 -26 21 0 10
-71 59 -85 59 -6 0 -16 -5 -22 -11z"/>
<path d="M5508 1673 c7 -3 16 -2 19 1 4 3 -2 6 -13 5 -11 0 -14 -3 -6 -6z"/>
<path d="M5348 1663 c17 -2 47 -2 65 0 17 2 3 4 -33 4 -36 0 -50 -2 -32 -4z"/>
<path d="M4418 1653 c12 -2 32 -2 45 0 12 2 2 4 -23 4 -25 0 -35 -2 -22 -4z"/>
<path d="M5093 1653 c31 -2 83 -2 115 0 31 2 5 3 -58 3 -63 0 -89 -1 -57 -3z"/>
</g>
</svg>
